<svg xmlns="http://www.w3.org/2000/svg" viewBox="0 0 54.8 54.8">
  <defs/>
  <path fill="#436b1c" d="M11.2 20a1 1 0 01-.8-.6c-.6-1-1.8-2.1-3.1-2-.6-.1-1-.5-1-1 0-.6.4-1 1-1 2-.1 3.8 1.5 4.8 3a1 1 0 01-.9 1.5z"/>
  <path fill="#88c057" d="M31.7 6.6c-.1-2-1.8-3.5-3.8-3.5v-1c-.3-.8-1.1-1.5-2-1.7-.8 0-1.6.2-2 .7-.5-.4-1.1-.7-1.8-.7a2.7 2.7 0 00-2.7 2.7 3.5 3.5 0 00-3.1 4.3 4 4 0 00-3.3 6 3 3 0 00-.2 4.4c2.4-2 5 4.6 8 9.9 1 1.7 11.6-.1 12.5 1 1-.9 1.6-16.1 1.6-17.5 0-2.1-1.3-4-3.2-4.6z"/>
  <path fill="#eeaf4b" d="M33 26.5l.8-.4c1.3-.8 3-.8 4.3 0l.7.4c1.3.8 3 .8 4.3 0l2-.9.6-1.7c1.8-6 3-12.4 3.2-18.7 0-2.6-2-6.6-5.5-4.7-3.5 1.7-6 8.6-7.7 11.8A70.5 70.5 0 0029.9 27c1 .3 2.2.1 3.2-.5z"/>
  <path fill="#ed3f32" d="M7 25.5l1.4.8c1.5 1 3.5 1 5 0l.4-.2c1.3-.8 3-.8 4.3 0l.7.4c.7.5 1.6.7 2.5.6.6-2 .4-4.7-.6-6.4-3.3-5.9-6-4.7-8.8-2.1-.5.5-1 .8-1.8 1-2.9.9-5 2.2-3.8 6 .2-.2.5-.3.8 0z"/>
  <path fill="#a46f3e" d="M35.6 24.4a1 1 0 01-1-1.4c.7-2 2.9-3 4.8-2.3 1 .3 2-.2 2.2-1.1a1 1 0 112 .6c-.7 2-2.9 3-4.8 2.4-1-.3-2 .2-2.3 1a1 1 0 01-1 .8zM38 17.4a1 1 0 01-1-1.3 3.7 3.7 0 014.8-2.4c.9.3 1.9-.2 2.2-1a1 1 0 111.9.6c-.7 2-2.8 3-4.8 2.3a1.7 1.7 0 00-2.2 1.1 1 1 0 01-1 .7zM40.3 10.4a1 1 0 01-1-1.3 3.3 3.3 0 014.3-2 1.3 1.3 0 001.6-.9 1 1 0 111.9.7 3.3 3.3 0 01-4.2 2c-.7-.2-1.4.2-1.6.8a1 1 0 01-1 .7z"/>
  <path fill="#dae7ef" d="M23.4 14.1c-1 1.3-2.5 2.7-1.9 5.4l1.6 7 .7-.4c1.3-.8 3-.8 4.3 0l.7.4c.5.4 1 .5 1 .5A72 72 0 0134 15.8c-.7-2-2.4-2.6-3.6-3.2-.8-.5-.8-1.5-.2-2.2.2-.2.3-.6.2-1l-.1-.5c-.1-.6-.7-1-1.4-.9l-6 1.4c-.6 0-1 .7-.9 1.3l.1.6c.1.3.4.6.7.7.7.4 1.2 1.2.8 1.9l-.1.2z"/>
  <path fill="#fff" d="M29.7 10.9L23 12.4c-.8.2-1.6-.3-1.7-1l-.1-.5c-.2-.8.3-1.5 1-1.7l7-1.5c.7-.2 1.5.3 1.6 1l.1.5c.2.8-.3 1.5-1 1.7z"/>
  <path fill="#fbd490" d="M46.8 25.3l-1.7 25a4.7 4.7 0 01-4.7 4.5h-28c-2.6 0-4.7-2-4.8-4.4L6 26.2c0-.6.6-1 1-.7l1.4.8c1.6 1 3.5 1 5 0l.4-.2c1.3-.8 3-.8 4.3 0l.7.4c1.3.8 3 .8 4.3 0l.7-.4c1.3-.8 3-.8 4.3 0l.7.4c1.3.8 3 .8 4.3 0l.7-.4c1.3-.8 3-.8 4.3 0l.7.4c1.3.8 3 .8 4.3 0l3.4-1.5c.2 0 .4.1.4.3z"/>
  <path fill="#e0b877" d="M18 42h-7a1 1 0 110-2h7a1 1 0 110 2zM20 46h-9a1 1 0 110-2h9a1 1 0 110 2zM22 50H11a1 1 0 110-2h11a1 1 0 110 2zM28 50h-2a1 1 0 110-2h2a1 1 0 110 2z"/>
</svg>
