<?xml version="1.0" standalone="no"?>
<!DOCTYPE svg PUBLIC "-//W3C//DTD SVG 20010904//EN"
 "http://www.w3.org/TR/2001/REC-SVG-20010904/DTD/svg10.dtd">
<svg version="1.0" xmlns="http://www.w3.org/2000/svg"
 width="700.000000pt" height="700.000000pt" viewBox="0 0 700.000000 700.000000"
 preserveAspectRatio="xMidYMid meet">
<metadata>
Created by potrace 1.14, written by Peter Selinger 2001-2017
</metadata>
<g transform="translate(0.000000,700.000000) scale(0.100000,-0.100000)"
fill="#000000" stroke="none">
<path d="M1355 6954 c-66 -19 -127 -37 -135 -39 -81 -20 -272 -81 -304 -97
-103 -52 -164 -134 -193 -258 -9 -38 -2 -111 16 -180 11 -41 21 -78 21 -82 0
-13 26 -9 117 18 49 14 156 45 238 69 83 24 265 77 405 118 140 41 283 83 318
92 37 11 62 23 62 31 0 31 -54 171 -81 210 -62 91 -156 143 -272 150 -62 4
-89 -1 -192 -32z"/>
<path d="M1950 6370 c-37 -11 -504 -148 -580 -169 -36 -10 -153 -45 -260 -76
-107 -32 -214 -62 -237 -68 -24 -6 -43 -15 -43 -21 0 -12 13 -59 64 -234 35
-119 46 -211 32 -272 -8 -36 -53 -122 -79 -150 -38 -44 -90 -77 -159 -105
-146 -58 -191 -152 -148 -310 77 -286 120 -420 139 -436 11 -9 42 -19 70 -22
112 -13 168 -54 408 -295 98 -98 187 -182 197 -186 28 -10 49 8 238 198 95 95
195 189 221 209 126 96 334 101 466 11 20 -13 124 -112 231 -218 117 -117 205
-197 221 -201 23 -6 46 13 223 187 110 109 196 201 196 211 0 10 -16 73 -36
140 -19 67 -37 129 -39 137 -2 8 -42 148 -90 310 -83 284 -133 456 -176 605
-11 39 -32 87 -46 108 -50 72 -150 109 -232 87 -131 -35 -266 -2 -354 87 -69
69 -85 107 -175 426 -9 31 -19 57 -22 56 -3 0 -16 -4 -30 -9z"/>
<path d="M4334 6255 c-57 -12 -115 -41 -165 -83 -42 -35 -78 -103 -209 -392
-73 -162 -153 -337 -177 -388 -23 -51 -43 -95 -43 -97 0 -3 -15 -37 -34 -77
-18 -40 -86 -190 -151 -333 -64 -143 -126 -280 -137 -303 -24 -54 -18 -72 24
-73 60 -1 92 -10 158 -40 55 -26 95 -60 276 -240 116 -115 218 -209 226 -209
23 0 50 24 253 229 99 100 200 197 225 216 124 92 281 107 428 40 44 -20 101
-70 287 -255 127 -127 237 -230 244 -230 25 0 53 24 268 238 151 151 236 228
269 245 142 72 282 66 422 -19 78 -46 86 -41 152 102 129 280 141 312 144 378
7 130 -48 247 -148 315 -22 15 -104 56 -181 91 -77 35 -174 78 -215 97 -41 19
-165 75 -275 125 -110 50 -272 123 -360 163 -88 40 -252 114 -365 165 -113 50
-247 112 -298 136 -51 24 -95 44 -98 44 -2 0 -39 16 -81 36 -284 132 -325 143
-439 119z"/>
<path d="M6257 4201 c-11 -4 -169 -156 -351 -339 -208 -207 -340 -332 -352
-332 -10 0 -26 5 -34 10 -8 5 -160 154 -338 332 -290 290 -326 322 -355 322
-29 0 -66 -35 -363 -332 -214 -214 -339 -332 -351 -332 -29 0 -40 10 -365 334
-274 274 -300 297 -328 294 -25 -2 -86 -58 -338 -310 -228 -229 -315 -309
-337 -313 -28 -6 -47 11 -346 309 -268 267 -321 316 -345 316 -24 0 -77 -49
-344 -315 -240 -239 -322 -315 -340 -315 -18 0 -100 76 -340 315 -272 271
-320 315 -346 315 -25 0 -72 -43 -341 -312 -209 -210 -317 -325 -328 -350 -13
-33 -15 -234 -15 -1763 l0 -1725 3500 0 3500 0 0 1726 c0 1687 0 1726 -19
1767 -14 29 -121 143 -348 368 -180 180 -335 329 -343 331 -8 3 -23 2 -33 -1z"/>
</g>
</svg>
