<?xml version="1.0" standalone="no"?>
<!DOCTYPE svg PUBLIC "-//W3C//DTD SVG 20010904//EN"
 "http://www.w3.org/TR/2001/REC-SVG-20010904/DTD/svg10.dtd">
<svg version="1.0" xmlns="http://www.w3.org/2000/svg"
 width="700.000000pt" height="700.000000pt" viewBox="0 0 700.000000 700.000000"
 preserveAspectRatio="xMidYMid meet">
<metadata>
Created by potrace 1.14, written by Peter Selinger 2001-2017
</metadata>
<g transform="translate(0.000000,700.000000) scale(0.100000,-0.100000)"
fill="#000000" stroke="none">
<path d="M5640 6976 c-238 -82 -425 -280 -660 -696 -41 -72 -222 -438 -290
-585 -30 -65 -157 -321 -194 -390 -9 -16 -16 -36 -16 -42 0 -7 -4 -13 -9 -13
-5 0 -11 -8 -14 -17 -2 -10 -4 88 -4 217 1 229 0 237 -26 316 -32 97 -91 190
-163 260 -56 54 -139 108 -186 119 -26 7 -33 16 -29 39 1 5 -7 39 -18 75 -40
130 -136 242 -256 297 -51 24 -168 53 -196 49 -12 -2 -15 9 -14 59 1 47 -4 72
-24 109 -47 91 -161 169 -253 173 -75 4 -168 -25 -213 -67 -20 -18 -22 -18
-57 6 -188 127 -438 48 -519 -165 -10 -27 -19 -65 -19 -84 0 -32 -2 -34 -46
-40 -69 -9 -172 -64 -231 -124 -93 -92 -141 -224 -130 -352 5 -67 6 -66 -60
-74 -105 -13 -243 -96 -312 -189 -80 -107 -110 -202 -106 -333 2 -76 32 -190
59 -223 8 -10 5 -17 -10 -30 -38 -30 -92 -119 -105 -173 -32 -130 -7 -234 86
-365 7 -10 5 -17 -8 -24 -9 -6 -29 -22 -43 -36 -14 -14 -26 -24 -27 -22 -15
23 -124 151 -149 175 -153 145 -348 226 -488 202 -48 -8 -99 -52 -101 -86 0
-9 -2 -28 -3 -40 -4 -31 31 -81 69 -103 17 -9 59 -19 94 -23 78 -7 168 -47
232 -104 61 -54 135 -151 123 -161 -5 -5 -47 -21 -94 -36 -118 -39 -184 -70
-260 -120 -150 -101 -214 -223 -206 -398 4 -81 21 -178 36 -206 5 -9 0 -22
-11 -35 -16 -16 -22 -36 -21 -66 1 -33 15 -254 17 -280 2 -19 6 -87 10 -150 4
-63 8 -131 10 -150 2 -19 6 -84 10 -145 3 -60 8 -135 10 -165 2 -30 6 -95 9
-145 4 -49 8 -112 11 -140 2 -27 7 -99 10 -160 3 -60 8 -130 10 -155 2 -25 7
-94 11 -155 4 -60 8 -126 9 -145 1 -19 5 -84 9 -145 4 -60 9 -132 11 -160 2
-27 7 -95 11 -150 3 -55 7 -118 9 -140 2 -22 6 -87 10 -145 3 -58 8 -132 10
-165 5 -63 14 -201 21 -320 9 -158 24 -219 76 -317 68 -129 193 -232 345 -285
l78 -28 1900 0 1900 0 70 22 c186 59 330 199 395 385 19 56 27 105 35 228 3
41 7 107 10 145 3 39 7 106 10 150 3 44 7 107 10 140 2 33 7 101 10 150 3 50
8 113 10 140 2 28 7 93 10 145 13 208 23 361 30 460 3 36 7 99 10 140 3 41 7
104 10 140 2 36 7 106 10 155 4 50 8 115 10 145 2 30 7 96 10 145 3 50 8 115
10 145 2 30 7 100 10 155 4 55 8 118 10 140 2 22 6 90 10 150 4 61 9 128 11
150 2 22 6 94 9 159 7 120 9 142 20 176 4 13 -1 22 -14 30 -20 10 -79 -9 -166
-54 -16 -9 -31 -12 -33 -6 -2 5 17 69 42 142 25 73 52 158 60 188 8 30 33 123
56 205 22 83 42 159 44 170 2 11 18 78 35 149 17 70 33 140 36 154 2 14 9 48
15 76 6 28 12 62 15 76 3 14 11 59 20 100 17 88 23 123 31 170 2 19 9 58 14
85 5 28 12 70 15 95 3 25 8 56 10 70 2 14 7 50 10 80 4 30 9 62 10 70 1 8 6
44 10 80 3 36 8 79 10 95 2 17 7 68 11 115 3 47 8 92 9 101 5 27 18 281 18
364 1 95 -6 147 -32 238 -95 329 -327 497 -571 413z"/>
</g>
</svg>
